<?xml version="1.0" standalone="no"?>
<!DOCTYPE svg PUBLIC "-//W3C//DTD SVG 20010904//EN"
 "http://www.w3.org/TR/2001/REC-SVG-20010904/DTD/svg10.dtd">
<svg version="1.0" xmlns="http://www.w3.org/2000/svg"
 width="230.000000pt" height="65.000000pt" viewBox="0 0 230.000000 65.000000"
 preserveAspectRatio="xMidYMid meet">
<metadata>
Created by potrace 1.10, written by Peter Selinger 2001-2011
</metadata>
<g transform="translate(0.000000,65.000000) scale(0.100000,-0.100000)"
fill="#000000" stroke="none">
<path d="M180 640 c-110 -20 -170 -100 -170 -226 0 -62 2 -68 34 -100 19 -19
41 -34 50 -34 12 0 16 -10 16 -44 0 -41 -2 -45 -27 -48 -33 -4 -28 -23 5 -23
21 1 22 -3 22 -77 0 -43 5 -80 11 -83 16 -11 18 -5 25 82 l7 80 52 17 c102 32
207 135 220 216 6 35 6 35 -9 10 l-15 -25 0 35 c0 19 4 44 9 55 8 19 9 19 9
-2 1 -12 6 -25 12 -29 9 -5 10 7 7 44 -6 58 -41 113 -88 137 -33 17 -118 24
-170 15z m150 -65 c42 -40 53 -82 41 -150 -11 -61 -21 -84 -58 -132 -25 -35
-91 -77 -135 -87 -27 -6 -28 -5 -28 34 0 29 4 40 15 40 53 0 99 57 77 96 -9
16 -11 15 -21 -4 -6 -12 -25 -28 -40 -37 l-29 -15 5 100 c6 98 6 99 -16 93
-31 -8 -34 -17 -32 -109 2 -94 -4 -101 -50 -55 -24 25 -29 37 -29 78 1 110 95
187 218 179 41 -2 59 -9 82 -31z m-190 -275 c0 -5 -4 -10 -10 -10 -5 0 -10 5
-10 10 0 6 5 10 10 10 6 0 10 -4 10 -10z"/>
<path d="M496 574 c-27 -27 -35 -49 -56 -156 -47 -242 -5 -413 87 -353 14 10
30 30 36 46 l11 28 11 -32 c6 -19 21 -37 38 -45 24 -12 31 -11 53 3 24 15 27
15 38 0 17 -24 44 -9 68 39 l21 41 9 -32 c20 -76 97 -76 143 0 24 41 25 41 25
14 0 -41 42 -79 77 -71 34 8 60 30 70 58 6 17 8 14 13 -19 4 -32 10 -41 28
-43 21 -3 22 -1 22 93 0 101 16 160 46 172 27 10 34 -16 34 -129 0 -110 9
-138 46 -138 17 0 64 44 64 60 0 5 5 10 10 10 6 0 10 -6 10 -14 0 -21 48 -56
76 -56 23 0 32 9 77 79 28 44 47 51 47 16 0 -40 27 -84 57 -91 22 -6 32 -1 55
25 15 17 28 39 29 49 0 9 5 1 12 -18 7 -22 23 -40 41 -48 25 -13 31 -12 57 7
22 16 29 18 29 7 0 -19 25 -27 44 -13 9 7 25 30 35 52 16 33 20 36 21 17 0
-31 16 -59 40 -72 28 -15 87 12 102 47 l13 27 5 -39 c4 -32 9 -40 25 -40 18 0
20 7 21 61 1 54 38 194 51 194 2 0 1 -24 -2 -54 -6 -47 -4 -57 14 -75 28 -28
55 -18 45 18 -5 14 -9 53 -9 85 0 39 -4 61 -13 64 -16 5 -62 -24 -62 -41 -1
-6 -7 -25 -15 -42 -13 -29 -13 -29 -12 25 2 50 0 55 -20 58 -22 3 -23 1 -23
-82 0 -92 -10 -128 -42 -163 -25 -27 -50 -29 -68 -8 -10 12 -9 15 7 15 29 0
63 42 74 91 17 75 -11 149 -56 149 -37 0 -62 -31 -75 -97 -7 -32 -19 -79 -27
-105 -31 -100 -36 -69 -32 188 l4 249 -22 3 c-23 3 -23 3 -23 -129 0 -104 -3
-130 -12 -121 -19 19 -63 14 -86 -11 -20 -21 -33 -65 -47 -161 -4 -22 -17 -49
-32 -64 l-26 -26 -18 23 c-13 16 -19 39 -19 78 0 45 5 61 29 91 16 20 37 60
46 87 20 57 31 161 21 198 -7 30 -41 44 -62 26 -44 -36 -84 -193 -84 -325 0
-50 -4 -65 -17 -73 -16 -8 -18 -3 -19 50 -1 37 -9 70 -21 91 -16 28 -25 33
-58 33 -36 0 -42 -4 -63 -42 -14 -26 -26 -70 -31 -111 -7 -70 -33 -126 -54
-119 -8 2 -11 35 -8 111 2 86 0 111 -13 131 -26 40 -76 30 -105 -20 -9 -16
-11 12 -9 130 3 146 2 150 -18 153 -20 3 -21 -2 -27 -201 -4 -112 -11 -217
-17 -233 -24 -62 -73 -91 -100 -59 -10 12 -9 15 8 15 27 0 68 50 76 95 14 71
-16 145 -59 145 -36 0 -63 -36 -75 -99 -6 -31 -13 -65 -15 -77 -7 -34 -49 -89
-71 -92 -35 -5 -49 24 -47 98 1 73 19 150 33 150 18 0 32 -44 27 -87 -3 -30
-1 -43 7 -40 34 11 30 118 -5 140 -46 29 -91 -22 -108 -123 -11 -65 -37 -130
-52 -130 -5 0 -8 4 -5 8 3 5 6 60 7 122 1 95 -1 116 -14 124 -9 6 -19 7 -23 3
-5 -4 -10 -56 -12 -115 -2 -70 -9 -115 -18 -129 -36 -57 -69 1 -62 107 6 80
29 125 59 117 13 -3 19 -1 16 6 -2 7 -17 13 -34 15 -42 4 -80 -41 -88 -106 -9
-75 -25 -122 -47 -144 l-21 -21 -19 23 c-28 35 -25 124 6 161 36 42 67 134 73
217 5 61 3 75 -12 92 -22 24 -38 25 -59 4z m54 -65 c0 -62 -28 -170 -55 -214
-13 -22 -25 -33 -25 -24 0 26 39 236 50 264 14 36 30 22 30 -26z m1170 -7 c0
-60 -24 -154 -52 -204 -12 -21 -23 -36 -25 -34 -6 5 36 241 47 272 15 37 30
20 30 -34z m-1263 -109 c-3 -10 -5 -2 -5 17 0 19 2 27 5 18 2 -10 2 -26 0 -35z
m1039 -78 c9 -14 19 -54 22 -90 6 -75 -6 -84 -52 -39 -27 28 -34 68 -14 80 8
5 6 11 -6 20 -14 10 -15 16 -6 33 14 28 36 26 56 -4z m-422 -1 c3 -9 6 -44 6
-78 0 -49 -5 -69 -21 -90 -11 -14 -25 -26 -30 -26 -13 0 -11 112 2 166 11 44
32 58 43 28z m792 4 c11 -17 5 -198 -7 -220 -14 -25 -36 -22 -55 7 -21 32 -14
163 11 201 17 26 39 31 51 12z m210 -13 c11 -46 -1 -143 -21 -165 -10 -11 -23
-20 -28 -20 -11 0 -4 163 8 193 10 25 34 21 41 -8z m-583 -165 c21 0 22 -29 3
-55 -26 -36 -66 8 -66 72 l0 26 23 -21 c13 -12 31 -22 40 -22z"/>
</g>
</svg>
