<?xml version="1.0" standalone="no"?>
<!DOCTYPE svg PUBLIC "-//W3C//DTD SVG 20010904//EN"
 "http://www.w3.org/TR/2001/REC-SVG-20010904/DTD/svg10.dtd">
<svg version="1.0" xmlns="http://www.w3.org/2000/svg"
 width="300.000000pt" height="47.000000pt" viewBox="0 0 300.000000 47.000000"
 preserveAspectRatio="xMidYMid meet">
<metadata>
Created by potrace 1.10, written by Peter Selinger 2001-2011
</metadata>
<g transform="translate(0.000000,47.000000) scale(0.100000,-0.100000)"
fill="#000000" stroke="none">
<path d="M325 460 c-105 -11 -190 -39 -256 -81 -53 -35 -59 -42 -59 -73 0 -37
12 -51 53 -61 22 -6 27 -4 27 10 0 30 40 84 86 116 116 80 328 103 389 43 22
-23 19 -85 -8 -125 -39 -58 -106 -96 -222 -126 l-30 -7 38 -4 c42 -4 169 29
227 58 58 30 108 84 116 125 8 44 -18 78 -81 105 -48 22 -182 31 -280 20z
m323 -114 c3 -30 -2 -41 -30 -66 -18 -17 -39 -30 -48 -30 -10 0 -11 3 -4 8 24
15 46 75 42 113 -3 37 -3 38 17 25 13 -8 21 -27 23 -50z m-556 -21 c-27 -44
-45 -55 -57 -35 -8 14 12 38 50 62 17 10 31 18 32 18 1 0 -10 -20 -25 -45z"/>
<path d="M242 245 c-52 -101 -92 -192 -90 -202 3 -19 68 -46 79 -35 12 12 150
345 156 376 6 29 -7 46 -37 46 -10 0 -49 -67 -108 -185z m70 18 c-28 -65 -60
-142 -72 -170 -21 -50 -41 -65 -55 -43 -3 5 33 87 81 182 48 95 89 168 91 161
2 -6 -18 -65 -45 -130z"/>
<path d="M763 392 c-24 -15 -153 -296 -153 -333 0 -23 33 -33 61 -19 11 7 38
27 60 47 l39 35 -11 -31 c-8 -24 -8 -35 1 -46 17 -21 38 -19 86 8 40 24 40 24
40 3 -2 -47 82 -18 136 48 17 21 18 21 18 -11 0 -83 108 -82 209 2 l31 27 0
-31 c0 -34 30 -61 70 -61 35 1 101 33 129 64 30 32 48 35 27 4 -9 -12 -16 -30
-16 -40 0 -40 51 -33 69 11 11 25 121 144 121 130 0 -3 -11 -33 -25 -67 -30
-74 -31 -89 -5 -97 24 -8 50 6 101 52 l39 35 0 -31 c0 -64 81 -77 151 -25 18
13 40 24 49 24 9 0 25 7 36 15 30 22 34 18 19 -18 -11 -26 -11 -37 -3 -45 20
-20 45 -13 97 28 49 39 51 40 45 15 -7 -29 10 -55 36 -55 9 0 34 11 54 25 44
30 46 30 39 5 -7 -25 20 -36 52 -22 13 6 41 27 63 46 l39 35 0 -30 c0 -75 105
-77 191 -3 46 39 50 38 26 -8 -13 -25 -14 -32 -2 -39 30 -19 34 -16 96 77 64
98 104 126 63 46 -12 -23 -18 -47 -15 -55 14 -38 90 -25 141 25 51 49 40 66
-13 19 -43 -38 -64 -49 -64 -36 0 3 14 39 32 81 23 54 28 78 20 86 -18 18 -67
-9 -106 -60 -40 -50 -48 -43 -15 12 22 38 19 56 -10 56 -23 0 -43 -23 -75 -87
-27 -55 -108 -126 -157 -138 -33 -8 -52 14 -43 49 5 22 12 26 43 26 101 0 191
125 106 146 -58 14 -105 -12 -202 -114 -50 -53 -94 -95 -96 -92 -3 3 28 73 68
155 40 83 69 154 64 159 -19 21 -59 -5 -84 -54 -20 -40 -30 -50 -51 -50 -45 0
-87 -30 -175 -123 -48 -51 -90 -89 -93 -86 -4 4 23 73 59 155 66 148 70 173
25 159 -16 -5 -38 -40 -77 -121 -35 -74 -65 -121 -83 -134 -40 -28 -42 -25
-19 19 29 56 23 112 -13 125 -55 19 -105 -8 -202 -110 -49 -52 -93 -94 -97
-94 -4 0 8 34 27 77 64 140 31 171 -71 68 -36 -36 -65 -62 -65 -56 0 5 4 12 8
15 13 8 95 206 89 213 -3 3 -18 2 -32 -1 -21 -5 -36 -28 -80 -119 -42 -85 -66
-122 -102 -154 -83 -75 -133 -82 -133 -18 0 34 1 35 38 35 49 0 111 36 136 79
l20 34 -23 18 c-28 23 -44 24 -103 3 -36 -12 -63 -33 -116 -93 -72 -79 -146
-129 -175 -118 -39 15 -3 122 59 177 40 35 54 38 54 12 0 -21 -29 -52 -48 -52
-19 0 -14 -17 7 -23 29 -7 80 19 93 49 11 24 10 28 -12 46 -45 37 -138 3 -198
-70 -67 -82 -110 -127 -117 -120 -4 4 5 33 20 65 46 100 41 143 -17 143 -55 0
-101 -30 -189 -123 -48 -51 -90 -89 -94 -85 -3 3 -2 14 4 25 28 48 128 282
123 287 -8 8 -35 7 -49 -2z m1653 -169 c-14 -26 -25 -44 -26 -39 0 14 42 98
47 92 2 -2 -7 -26 -21 -53z m-1436 37 c0 -6 -14 -19 -31 -29 -17 -10 -26 -20
-20 -22 28 -10 -60 -139 -94 -139 -24 0 45 140 86 175 31 26 59 33 59 15z
m500 -4 c0 -22 -35 -59 -79 -84 -54 -31 -52 -13 7 48 48 50 72 62 72 36z m124
-21 c-7 -19 -14 -45 -14 -59 0 -14 -5 -28 -11 -32 -6 -3 -19 -20 -30 -38 l-19
-31 0 27 c0 15 5 30 10 33 6 4 24 35 40 71 30 66 50 90 24 29z m382 10 c-13
-53 -26 -75 -39 -69 -21 8 -40 -22 -33 -50 6 -26 -24 -66 -51 -66 -37 0 22
149 75 191 35 27 56 25 48 -6z m414 15 c0 -6 -15 -19 -32 -30 -24 -14 -28 -20
-15 -20 10 0 17 -3 15 -7 -2 -5 -12 -25 -22 -46 -18 -40 -62 -86 -83 -87 -27
0 42 147 85 181 27 21 52 25 52 9z m270 -3 c0 -21 -28 -54 -64 -76 -51 -32
-62 -26 -31 17 46 62 95 92 95 59z m-946 -59 l-19 -42 -5 29 c-4 22 0 34 15
47 28 23 31 14 9 -34z m1175 16 c-10 -23 -13 -25 -16 -11 -3 10 1 25 8 33 17
21 21 11 8 -22z m-132 -62 c-8 -10 -22 -30 -30 -47 -13 -24 -16 -26 -17 -10 0
11 12 43 28 73 24 47 27 50 30 26 2 -14 -3 -33 -11 -42z m-1930 25 c-8 -13
-21 -42 -28 -65 -14 -47 -29 -55 -29 -16 0 14 14 43 33 64 36 44 47 52 24 17z
m494 -36 c-6 -11 -11 -32 -11 -48 0 -22 -2 -25 -10 -13 -15 23 -12 54 8 78 20
24 29 13 13 -17z m910 -19 c-22 -65 -31 -75 -31 -33 0 26 37 97 46 88 1 -1 -5
-26 -15 -55z m280 25 c-6 -6 -11 -27 -11 -46 0 -36 -16 -33 -21 4 -4 23 33 84
39 65 2 -6 -1 -17 -7 -23z m-1435 -22 c-9 -39 -12 -43 -20 -26 -6 14 -4 28 8
46 9 14 18 25 19 25 2 0 -1 -20 -7 -45z m1010 0 c-9 -20 -13 -41 -10 -46 3 -5
0 -9 -5 -9 -17 0 -13 48 5 76 23 34 28 23 10 -21z m-267 -1 c-10 -23 -13 -25
-16 -11 -3 10 1 25 8 33 17 21 21 11 8 -22z m149 14 c-16 -23 -30 -27 -36 -10
-1 5 8 14 20 20 32 15 32 15 16 -10z m-1034 -25 c-7 -41 -19 -61 -30 -50 -7 6
24 87 33 87 2 0 1 -17 -3 -37z m-288 -41 c-11 -10 -15 4 -8 28 l7 25 3 -23 c2
-13 1 -26 -2 -30z m1020 1 c-11 -11 -17 4 -9 23 7 18 8 18 11 1 2 -10 1 -21
-2 -24z m680 0 c-11 -11 -19 6 -11 24 8 17 8 17 12 0 3 -10 2 -21 -1 -24z"/>
</g>
</svg>
