<?xml version="1.0" standalone="no"?>
<!DOCTYPE svg PUBLIC "-//W3C//DTD SVG 20010904//EN"
 "http://www.w3.org/TR/2001/REC-SVG-20010904/DTD/svg10.dtd">
<svg version="1.0" xmlns="http://www.w3.org/2000/svg"
 width="300.000000pt" height="35.000000pt" viewBox="0 0 300.000000 35.000000"
 preserveAspectRatio="xMidYMid meet">
<metadata>
Created by potrace 1.10, written by Peter Selinger 2001-2011
</metadata>
<g transform="translate(0.000000,35.000000) scale(0.100000,-0.100000)"
fill="#000000" stroke="none">
<path d="M16 337 c11 -6 14 -39 14 -162 0 -138 -2 -154 -17 -158 -10 -3 16 -5
57 -6 55 0 70 2 58 10 -14 8 -18 23 -18 64 l0 55 40 0 c83 0 140 44 140 108 0
45 -46 91 -92 94 -94 5 -195 2 -182 -5z m147 -6 c57 -22 57 -150 1 -171 -52
-20 -54 -17 -54 85 0 102 2 105 53 86z m-81 -98 c4 -116 -1 -193 -13 -193 -5
0 -9 58 -9 140 0 154 17 194 22 53z m178 12 c0 -18 -7 -38 -15 -45 -13 -11
-15 -5 -15 45 0 50 2 56 15 45 8 -7 15 -27 15 -45z"/>
<path d="M351 337 c-14 -6 -27 -19 -29 -27 -5 -13 -3 -13 11 -2 31 26 37 4 37
-139 0 -135 -1 -140 -22 -149 -17 -6 0 -9 57 -9 44 1 73 3 65 6 -27 11 -30 26
-30 170 0 130 -2 143 -19 153 -25 13 -40 13 -70 -3z m58 -160 c-2 -162 -7
-149 -11 30 -2 66 0 119 5 116 4 -2 6 -68 6 -146z"/>
<path d="M1362 334 c-12 -8 -22 -20 -22 -27 0 -8 3 -8 12 1 7 7 16 12 20 12 4
0 8 -67 8 -149 0 -134 -2 -150 -17 -154 -10 -3 16 -5 57 -6 55 0 70 2 58 10
-15 8 -18 25 -18 98 0 76 3 90 21 107 15 14 24 16 37 8 13 -9 18 -31 22 -101
6 -105 17 -125 68 -121 24 2 39 11 50 28 11 18 12 21 2 13 -32 -29 -40 -15
-40 71 0 82 -1 85 -31 110 -35 29 -74 33 -107 10 -22 -15 -22 -15 -22 35 0 39
-4 53 -19 61 -28 14 -53 13 -79 -6z m69 -95 c1 -41 0 -103 -1 -139 -4 -107
-17 -24 -19 115 -1 80 2 116 9 109 6 -6 11 -44 11 -85z m160 -114 c1 -38 -2
-72 -7 -75 -5 -3 -10 33 -12 80 -2 55 1 81 7 75 5 -6 11 -41 12 -80z"/>
<path d="M2004 341 c-12 -5 -24 -17 -27 -25 -5 -14 -3 -15 13 -6 10 5 21 10
24 10 3 0 6 -67 6 -149 0 -134 -2 -150 -17 -154 -10 -3 16 -5 57 -5 41 0 67 2
58 5 -16 4 -18 20 -18 151 0 81 -4 153 -8 159 -11 17 -62 25 -88 14z m54 -164
c-2 -154 -6 -138 -10 40 -2 61 0 109 5 106 4 -2 6 -68 5 -146z"/>
<path d="M2314 340 c-12 -4 -24 -16 -27 -24 -5 -14 -3 -15 13 -6 28 15 30 13
30 -30 0 -37 -2 -40 -19 -30 -46 24 -111 -1 -131 -50 -28 -69 -5 -171 42 -186
36 -11 79 -7 98 11 15 14 18 14 30 0 25 -30 100 -9 100 28 0 8 -4 7 -12 -1 -7
-7 -16 -12 -20 -12 -4 0 -8 63 -8 139 0 133 -1 141 -22 155 -25 18 -42 19 -74
6z m58 -158 c2 -73 0 -132 -4 -132 -5 0 -8 39 -9 88 0 48 -2 111 -3 140 -1 29
1 49 6 44 4 -4 9 -67 10 -140z m-58 52 c24 -9 23 -170 -1 -196 -39 -44 -63 -9
-63 92 0 97 16 123 64 104z m-94 -105 c0 -44 -4 -68 -10 -64 -18 11 -12 135 7
135 2 0 3 -32 3 -71z"/>
<path d="M562 248 c-25 -13 -40 -54 -24 -70 5 -5 20 -8 33 -6 20 2 25 10 27
41 2 23 8 37 17 37 21 0 45 -29 45 -55 0 -13 3 -30 6 -38 4 -11 -7 -15 -50
-19 -69 -6 -106 -29 -106 -67 0 -15 8 -35 18 -45 27 -23 105 -25 130 -3 17 16
21 16 32 2 17 -21 63 -19 83 3 21 23 22 39 2 22 -25 -21 -35 -1 -35 76 0 61
-4 78 -20 94 -39 39 -109 51 -158 28z m148 -129 c0 -44 -4 -68 -10 -64 -5 3
-10 38 -10 76 0 44 4 68 10 64 6 -3 10 -38 10 -76z m-40 -22 c0 -58 -57 -105
-74 -61 -17 43 13 94 54 94 16 0 20 -7 20 -33z m-110 -33 c0 -14 -4 -23 -10
-19 -5 3 -10 15 -10 26 0 10 5 19 10 19 6 0 10 -12 10 -26z"/>
<path d="M884 246 c-47 -21 -64 -52 -64 -119 0 -51 4 -62 28 -86 35 -35 107
-47 158 -26 19 8 34 21 34 30 0 13 -4 12 -22 -5 -28 -26 -70 -26 -93 0 -20 22
-31 103 -21 145 7 27 39 65 55 65 6 0 11 -17 13 -37 2 -30 8 -39 24 -41 26 -4
48 21 40 46 -13 39 -92 54 -152 28z m-9 -121 c0 -63 -2 -73 -12 -58 -20 27
-15 133 6 133 3 0 6 -34 6 -75z"/>
<path d="M1159 244 c-97 -40 -89 -195 11 -231 40 -15 105 -9 138 13 35 23 26
36 -10 14 -33 -20 -102 -27 -112 -12 -3 5 -8 28 -12 50 l-7 42 42 0 c113 0
164 83 77 124 -42 20 -80 20 -127 0z m87 -31 c9 -34 -10 -71 -41 -79 -34 -9
-38 -3 -30 46 12 68 57 90 71 33z m41 -35 c-3 -7 -5 -2 -5 12 0 14 2 19 5 13
2 -7 2 -19 0 -25z m-138 -87 c1 -20 -1 -21 -14 -11 -16 13 -21 90 -7 104 7 8
20 -49 21 -93z"/>
<path d="M1763 246 c-45 -20 -65 -57 -65 -116 0 -86 39 -123 130 -123 67 0
102 24 120 81 17 53 0 115 -39 145 -35 25 -105 31 -146 13z m103 -51 c11 -61
0 -156 -21 -171 -26 -19 -53 -1 -61 41 -11 61 0 156 21 171 26 19 53 1 61 -41z
m-116 -67 c0 -51 -3 -68 -10 -58 -16 24 -11 130 6 130 2 0 4 -33 4 -72z m172
9 c0 -25 -5 -54 -11 -64 -8 -14 -10 -1 -11 57 0 53 3 71 11 63 6 -6 11 -31 11
-56z"/>
<path d="M2553 246 c-86 -39 -95 -170 -15 -222 38 -25 134 -25 161 0 12 11 21
24 21 29 0 6 -9 2 -20 -8 -11 -10 -41 -20 -69 -23 -54 -5 -52 -7 -64 69 -4 26
-2 27 49 31 68 6 104 29 104 68 0 54 -98 87 -167 56z m87 -51 c0 -35 -28 -65
-61 -65 -13 0 -15 7 -9 44 9 58 25 79 51 65 13 -6 19 -21 19 -44z m50 -5 c0
-11 -4 -20 -10 -20 -5 0 -10 9 -10 20 0 11 5 20 10 20 6 0 10 -9 10 -20z
m-150 -57 c-1 -62 -2 -66 -15 -49 -17 23 -19 69 -5 97 6 10 13 19 15 19 3 0 5
-30 5 -67z"/>
<path d="M2773 238 c-6 -7 -13 -20 -18 -28 -6 -12 -5 -13 6 -2 32 29 39 14 39
-83 0 -79 -3 -96 -17 -104 -13 -8 2 -10 57 -10 41 1 67 3 58 6 -16 4 -18 17
-18 97 0 77 3 96 18 109 26 24 30 22 34 -15 2 -25 8 -34 24 -36 31 -4 50 23
36 53 -9 20 -19 25 -51 25 -22 0 -44 -6 -51 -15 -11 -13 -14 -13 -27 0 -18 18
-77 20 -90 3z m77 -114 c0 -46 -4 -84 -9 -84 -9 0 -20 149 -13 170 2 6 8 8 13
4 5 -3 9 -43 9 -90z"/>
</g>
</svg>
