<?xml version="1.0" standalone="no"?>
<!DOCTYPE svg PUBLIC "-//W3C//DTD SVG 20010904//EN"
 "http://www.w3.org/TR/2001/REC-SVG-20010904/DTD/svg10.dtd">
<svg version="1.0" xmlns="http://www.w3.org/2000/svg"
 width="254.000000pt" height="65.000000pt" viewBox="0 0 254.000000 65.000000"
 preserveAspectRatio="xMidYMid meet">
<metadata>
Created by potrace 1.10, written by Peter Selinger 2001-2011
</metadata>
<g transform="translate(0.000000,65.000000) scale(0.100000,-0.100000)"
fill="#000000" stroke="none">
<path d="M535 640 c-77 -11 -181 -71 -212 -123 -4 -8 -32 -27 -62 -43 -73 -39
-192 -156 -222 -219 -16 -34 -25 -73 -27 -121 -4 -63 -2 -73 21 -99 22 -26 29
-29 87 -27 77 2 135 32 222 113 46 44 70 58 102 63 158 26 366 214 366 332 0
39 -36 85 -82 107 -42 19 -128 26 -193 17z m114 -26 c31 -7 43 -24 16 -24 -27
0 -130 -114 -221 -245 -66 -96 -97 -131 -114 -133 -21 -3 -19 1 21 46 55 61
117 165 125 211 10 50 -5 66 -60 64 -46 -1 -46 -1 -24 16 76 59 168 82 257 65z
m80 -50 c27 -34 26 -57 -4 -121 -25 -56 -94 -130 -157 -169 -50 -32 -138 -66
-138 -54 0 5 4 11 9 14 5 4 46 65 91 136 80 125 153 220 170 220 5 0 18 -12
29 -26z m-281 -77 c2 -14 -7 -45 -19 -69 -26 -52 -99 -156 -127 -181 -19 -17
-22 -18 -45 -2 -14 9 -28 23 -31 31 -8 20 33 35 58 22 19 -10 39 6 32 27 -3
12 -53 12 -80 0 -14 -6 -18 -5 -14 6 2 8 14 18 26 24 26 12 28 23 5 32 -20 8
-63 -39 -63 -70 0 -12 -11 -39 -24 -61 -24 -37 -24 -63 -2 -78 19 -13 70 -9
93 7 12 8 33 14 46 13 l25 -2 -18 -27 c-26 -36 -93 -95 -129 -113 -40 -21
-115 -21 -132 1 -23 26 -15 93 19 158 36 73 97 143 181 208 52 41 61 45 61 28
0 -22 35 -51 61 -51 10 0 27 12 38 26 24 31 28 52 7 34 -23 -18 -61 -8 -64 16
-2 17 6 25 35 37 47 20 57 17 61 -16z m-216 -295 c-25 -14 -62 -8 -62 11 0 7
7 22 15 34 l15 22 28 -27 27 -27 -23 -13z m174 21 c-10 -10 -19 5 -10 18 6 11
8 11 12 0 2 -7 1 -15 -2 -18z"/>
<path d="M882 486 c-67 -57 -232 -335 -219 -370 10 -26 53 -19 92 15 42 37 39
51 -3 20 -17 -12 -35 -21 -41 -21 -18 0 16 47 119 162 114 126 127 148 114
185 -12 36 -26 38 -62 9z m14 -88 c-41 -59 -106 -135 -106 -124 0 13 132 187
138 182 3 -4 -11 -30 -32 -58z"/>
<path d="M1993 467 c-41 -44 -128 -169 -156 -222 -15 -30 -107 -104 -107 -87
0 5 7 15 16 22 37 31 59 104 38 125 -33 32 -61 18 -166 -80 -55 -53 -102 -94
-105 -91 -3 2 18 34 46 71 53 69 59 83 39 103 -25 25 -49 13 -112 -56 -40 -43
-26 -41 24 4 46 41 52 34 14 -17 -87 -117 -74 -185 21 -107 23 19 36 26 33 16
-11 -27 15 -52 48 -45 59 11 130 41 157 65 15 14 27 21 27 14 0 -6 -4 -14 -10
-17 -5 -3 -10 -19 -10 -36 0 -23 4 -29 21 -29 24 0 55 15 89 44 14 11 19 14
13 6 -18 -20 -16 -38 5 -49 15 -8 29 -1 70 35 50 44 66 48 37 11 -7 -11 -11
-25 -8 -33 10 -26 44 -14 93 32 50 46 50 46 39 15 -14 -39 1 -61 41 -61 19 0
49 19 101 64 41 34 82 72 92 83 10 12 26 19 35 16 14 -3 10 -12 -25 -49 -65
-67 -69 -125 -9 -110 27 7 156 121 156 138 0 6 -29 -17 -65 -51 -36 -33 -70
-61 -75 -61 -22 0 -6 24 56 86 42 41 64 70 60 79 -7 19 -25 19 -50 0 -35 -26
-49 -18 -25 14 21 28 23 62 4 67 -15 5 -67 -68 -62 -88 3 -11 -18 -37 -65 -80
-74 -66 -123 -95 -133 -78 -7 12 24 41 89 83 26 18 56 45 65 60 15 27 15 29
-3 42 -31 23 -81 -6 -178 -102 -48 -48 -90 -85 -92 -82 -3 3 46 75 109 161 63
86 115 160 115 164 0 5 -8 19 -18 32 l-18 23 -64 -100 c-48 -73 -68 -97 -77
-89 -21 17 -51 -2 -154 -98 -56 -52 -108 -94 -115 -94 -25 0 12 58 86 135 113
119 140 156 140 190 0 29 -15 55 -31 55 -3 0 -24 -19 -46 -43z m47 -44 c-12
-21 -46 -65 -76 -98 l-56 -60 39 55 c77 111 98 140 106 140 5 0 -1 -17 -13
-37z m-280 -128 c0 -10 -39 -80 -59 -105 -18 -23 -20 -23 -27 -7 -4 13 2 28
22 49 20 21 25 32 16 35 -10 4 -10 8 -1 19 11 13 49 20 49 9z m324 -46 c-28
-40 -124 -120 -124 -102 0 15 138 158 146 151 3 -4 -7 -26 -22 -49z m192 -5
c-27 -25 -51 -42 -55 -38 -3 3 16 25 44 49 65 57 75 47 11 -11z m-636 -52 c0
-4 -10 -13 -22 -21 -23 -14 -23 -14 -4 8 20 22 26 25 26 13z m14 -41 c3 -5 -1
-14 -9 -21 -13 -10 -15 -9 -15 9 0 21 14 28 24 12z"/>
<path d="M1491 369 c-85 -132 -158 -210 -222 -237 -29 -12 -30 -12 -27 9 2 15
20 32 53 50 53 29 105 80 105 104 0 8 -8 19 -18 24 -29 15 -73 -11 -161 -97
-85 -83 -137 -114 -147 -88 -3 8 1 27 10 43 17 33 100 113 117 113 12 0 5 -11
-36 -59 l-20 -24 34 19 c36 21 71 59 71 79 0 7 -7 18 -15 25 -12 10 -15 10
-15 -2 0 -11 -7 -14 -24 -11 -34 7 -79 -20 -123 -72 -21 -25 -38 -49 -38 -53
-1 -4 -4 -20 -8 -35 -10 -35 6 -57 40 -57 33 0 61 15 106 58 37 36 43 35 28
-3 -12 -29 5 -55 36 -55 28 0 117 61 127 87 4 9 9 14 12 11 2 -3 -3 -19 -12
-35 -10 -16 -15 -37 -11 -46 8 -20 37 -23 37 -3 0 7 16 33 35 58 19 25 32 48
30 50 -3 3 33 56 80 118 77 103 84 115 72 134 -8 11 -18 21 -23 23 -5 1 -47
-56 -93 -128z m-152 -115 c-19 -20 -43 -40 -54 -46 -20 -11 -20 -11 0 12 31
37 80 79 84 74 3 -2 -11 -20 -30 -40z"/>
<path d="M935 306 c-36 -16 -137 -118 -143 -143 -16 -74 13 -82 81 -22 45 39
47 39 37 13 -25 -65 19 -72 80 -13 23 22 39 43 36 47 -4 3 -22 -10 -41 -28
-47 -45 -52 -35 -9 19 37 48 41 63 21 79 -10 9 -29 -3 -80 -53 -36 -36 -71
-65 -77 -65 -15 0 85 116 118 138 19 12 28 13 43 4 15 -10 19 -9 19 1 0 18
-21 37 -39 37 -9 -1 -29 -7 -46 -14z"/>
</g>
</svg>
