<?xml version="1.0" standalone="no"?>
<!DOCTYPE svg PUBLIC "-//W3C//DTD SVG 20010904//EN"
 "http://www.w3.org/TR/2001/REC-SVG-20010904/DTD/svg10.dtd">
<svg version="1.0" xmlns="http://www.w3.org/2000/svg"
 width="192.000000pt" height="65.000000pt" viewBox="0 0 192.000000 65.000000"
 preserveAspectRatio="xMidYMid meet">
<metadata>
Created by potrace 1.10, written by Peter Selinger 2001-2011
</metadata>
<g transform="translate(0.000000,65.000000) scale(0.100000,-0.100000)"
fill="#000000" stroke="none">
<path d="M235 641 c-52 -13 -97 -42 -147 -93 -45 -46 -61 -78 -38 -78 6 0 10
4 10 9 0 21 86 103 134 126 138 68 246 9 246 -135 0 -136 -127 -281 -276 -316
-30 -7 -54 -10 -54 -7 0 3 10 37 21 75 l22 70 55 -6 c31 -4 66 -9 79 -12 13
-4 23 -2 23 4 0 11 -83 32 -125 32 -14 0 -25 1 -25 3 0 2 69 228 84 275 4 12
3 22 -2 22 -8 0 -52 -128 -97 -278 -4 -14 -21 -29 -46 -39 -53 -21 -91 -67
-87 -107 3 -28 12 -37 66 -63 2 0 -4 -25 -12 -54 -9 -29 -16 -57 -16 -63 1
-24 29 29 40 74 11 47 11 47 60 53 103 12 230 109 280 213 49 102 35 228 -32
277 -30 22 -113 31 -163 18z m-127 -433 c-23 -66 -23 -67 -48 -55 -28 14 -37
46 -20 76 11 22 83 64 88 52 1 -3 -8 -37 -20 -73z"/>
<path d="M1182 587 c-12 -12 -49 -83 -82 -157 -33 -74 -73 -148 -88 -164 -50
-53 -122 -68 -122 -26 0 34 10 47 34 43 26 -5 51 20 42 42 -10 28 -38 15 -106
-48 -73 -70 -110 -88 -110 -56 0 27 23 69 50 94 22 20 22 20 19 0 -2 -11 1
-22 6 -25 16 -8 17 36 1 49 -13 11 -24 5 -68 -37 -97 -90 -133 -92 -110 -6 13
48 8 72 -9 42 -8 -15 -13 -16 -29 -5 -29 17 -69 -10 -99 -67 -45 -87 -3 -103
71 -26 44 46 47 47 42 22 -4 -18 0 -32 9 -40 17 -15 61 -7 78 14 17 20 28 17
22 -6 -3 -11 0 -27 7 -35 15 -18 48 -6 101 36 24 19 37 25 33 14 -4 -9 1 -24
12 -36 21 -23 62 -18 107 14 l29 20 -16 -31 c-18 -36 -19 -42 -7 -42 5 0 20
17 32 38 32 53 79 112 90 112 5 0 6 -19 3 -43 -5 -33 -2 -46 11 -57 14 -12 20
-11 44 3 27 16 28 16 24 -6 -5 -34 11 -51 41 -43 30 7 66 59 66 95 0 17 4 22
16 17 9 -3 20 -6 26 -6 6 0 7 -8 3 -18 -19 -48 -36 -137 -31 -158 10 -40 21
-27 22 29 2 74 31 150 96 247 58 87 103 184 93 201 -19 29 -84 -72 -145 -223
-26 -64 -45 -73 -80 -38 -11 11 -22 20 -24 20 -1 0 -1 -21 1 -47 4 -39 1 -53
-17 -75 -12 -16 -28 -28 -36 -28 -25 0 -15 48 16 84 46 52 18 53 -35 1 -60
-58 -78 -59 -75 -3 5 81 -4 87 -59 36 -43 -41 -33 -24 41 74 32 43 70 100 84
128 38 76 22 127 -24 77z m-1 -84 c-17 -32 -42 -71 -56 -88 -22 -27 -21 -22
10 47 19 43 42 90 52 105 32 49 27 -1 -6 -64z m293 -33 c-25 -50 -48 -89 -51
-86 -5 4 62 142 79 164 24 29 16 6 -28 -78z m-529 -159 c-3 -6 -14 -11 -23
-11 -15 1 -15 2 2 15 21 16 32 13 21 -4z m-339 -2 c7 -12 -82 -107 -92 -97 -9
10 26 77 50 93 25 18 33 19 42 4z"/>
<path d="M1688 583 c-9 -10 -44 -73 -78 -141 -45 -89 -65 -121 -73 -113 -22
22 -55 11 -86 -26 -47 -57 -62 -133 -26 -133 7 0 36 25 64 56 41 45 49 50 40
27 -19 -51 -39 -151 -33 -167 11 -28 19 -17 21 27 3 83 51 206 118 302 34 50
70 105 79 123 26 51 7 83 -26 45z m-14 -77 c-49 -85 -57 -78 -9 9 21 36 40 64
42 61 3 -3 -12 -34 -33 -70z m-189 -260 c-46 -54 -65 -67 -65 -46 0 19 31 74
58 103 23 24 28 25 40 13 13 -13 9 -22 -33 -70z"/>
<path d="M594 576 c-36 -26 -138 -251 -170 -375 -16 -65 -16 -118 1 -113 6 2
9 14 7 27 -7 51 38 178 87 250 65 94 103 171 99 201 -3 23 -4 24 -24 10z m-18
-83 c-45 -89 -74 -126 -47 -61 26 61 64 128 74 128 4 0 -8 -30 -27 -67z"/>
<path d="M1769 333 c-14 -39 -67 -92 -108 -110 -30 -13 -36 -13 -49 0 -9 10
-12 24 -8 41 5 21 11 25 29 20 27 -6 52 18 43 41 -9 24 -42 18 -65 -12 -31
-38 -36 -69 -16 -99 14 -21 21 -24 48 -19 18 4 47 18 65 32 l33 25 -15 -37
c-18 -42 -20 -55 -8 -55 5 0 19 22 31 49 13 27 33 61 46 77 l22 28 27 -22 c28
-22 66 -18 74 7 3 8 -3 8 -23 1 -22 -9 -30 -6 -51 18 l-26 27 -25 -30 -25 -30
16 32 c10 20 12 34 6 38 -6 3 -15 -6 -21 -22z m-109 -18 c0 -8 -7 -15 -16 -15
-14 0 -14 3 -4 15 7 8 14 15 16 15 2 0 4 -7 4 -15z"/>
</g>
</svg>
